<svg preserveAspectRatio="none" overflow="visible" style="display: block;" width="36.6667" height="36.6667" viewBox="0 0 36.6667 36.6667" fill="none" xmlns="http://www.w3.org/2000/svg">
<g id="Group">
<path id="Vector" d="M18.3333 0L18.9273 0.0018332L19.5103 0.00916688L20.6397 0.0403335L21.1878 0.0641668L22.2493 0.1265L23.2632 0.210833C32.0357 1.0615 35.6052 4.631 36.4558 13.4035L36.5402 14.4173L36.6025 15.4788C36.6117 15.6585 36.6208 15.8418 36.6263 16.027L36.6575 17.1563L36.6667 18.3333L36.6575 19.5103L36.6263 20.6397L36.6025 21.1878L36.5402 22.2493L36.4558 23.2632C35.6052 32.0357 32.0357 35.6052 23.2632 36.4558L22.2493 36.5402L21.1878 36.6025C21.0082 36.6117 20.8248 36.6208 20.6397 36.6263L19.5103 36.6575L18.3333 36.6667L17.1563 36.6575L16.027 36.6263L15.4788 36.6025L14.4173 36.5402L13.4035 36.4558C4.631 35.6052 1.0615 32.0357 0.210833 23.2632L0.1265 22.2493L0.0641668 21.1878C0.0552568 21.0052 0.0473001 20.8225 0.0403335 20.6397L0.00916688 19.5103C0.00366688 19.1253 0 18.733 0 18.3333L0.0018332 17.7393L0.00916688 17.1563L0.0403335 16.027L0.0641668 15.4788L0.1265 14.4173L0.210833 13.4035C1.0615 4.631 4.631 1.0615 13.4035 0.210833L14.4173 0.1265L15.4788 0.0641668C15.6585 0.0550002 15.8418 0.0458335 16.027 0.0403335L17.1563 0.00916688C17.5413 0.00366688 17.9337 0 18.3333 0ZM15.6035 13.09C15.2194 12.8613 14.7649 12.7809 14.3257 12.8638C13.8864 12.9467 13.4926 13.1873 13.2182 13.5402C12.9439 13.8932 12.808 14.3342 12.836 14.7803C12.864 15.2266 13.0541 15.6469 13.3705 15.9628L15.7392 18.3333L13.3705 20.7038L13.2183 20.8762C12.9334 21.2447 12.7994 21.7078 12.8436 22.1714C12.8878 22.6351 13.1068 23.0646 13.4562 23.3728C13.8055 23.6808 14.2591 23.8443 14.7246 23.83C15.1903 23.8159 15.6328 23.6249 15.9628 23.2962L18.3333 20.9275L20.7038 23.2962L20.8762 23.4483C21.2447 23.7332 21.7078 23.8673 22.1714 23.8231C22.6351 23.7789 23.0646 23.5598 23.3728 23.2106C23.6808 22.8611 23.8443 22.4076 23.83 21.9421C23.8159 21.4764 23.6249 21.0338 23.2962 20.7038L20.9275 18.3333L23.2962 15.9628L23.4483 15.7905C23.7332 15.422 23.8673 14.9589 23.8231 14.4952C23.7789 14.0315 23.5598 13.602 23.2106 13.294C22.8611 12.9859 22.4076 12.8224 21.9421 12.8366C21.4764 12.8508 21.0338 13.0417 20.7038 13.3705L18.3333 15.7392L15.9628 13.3705L15.7905 13.2183L15.6035 13.09Z" fill="#BACBC9"/>
</g>
</svg>
