<svg width="38" height="38" viewBox="0 0 38 38" fill="none" xmlns="http://www.w3.org/2000/svg">
<path opacity="0.5" d="M5.48476 5.48574C3.16602 7.80446 3.16602 11.5364 3.16602 19.0003C3.16602 26.4642 3.16602 30.1962 5.48476 32.5149C7.80349 34.8337 11.5354 34.8337 18.9993 34.8337C26.4632 34.8337 30.1953 34.8337 32.5139 32.5149C34.8327 30.1962 34.8327 26.4642 34.8327 19.0003C34.8327 11.5364 34.8327 7.80446 32.5139 5.48574C30.1953 3.16699 26.4632 3.16699 18.9993 3.16699C11.5354 3.16699 7.80349 3.16699 5.48476 5.48574Z" fill="#B8B8D4"/>
<path d="M11.9536 15.2001C11.4289 14.8066 11.3226 14.0622 11.7161 13.5376C12.1096 13.0129 12.8539 12.9066 13.3786 13.3001L16.5452 15.6751C16.8443 15.8994 17.0202 16.2513 17.0202 16.625C17.0202 16.9988 16.8443 17.3508 16.5452 17.575L13.3786 19.95C12.8539 20.3436 12.1096 20.2372 11.7161 19.7125C11.3226 19.1879 11.4289 18.4436 11.9536 18.05L13.8536 16.625L11.9536 15.2001Z" fill="#B8B8D4"/>
<path d="M26.2827 13.5376C26.6763 14.0622 26.5699 14.8066 26.0452 15.2001L24.1452 16.625L26.0452 18.05C26.5699 18.4436 26.6763 19.1879 26.2827 19.7125C25.8892 20.2372 25.1449 20.3436 24.6202 19.95L21.4535 17.575C21.1546 17.3508 20.9785 16.9988 20.9785 16.625C20.9785 16.2513 21.1546 15.8994 21.4535 15.6751L24.6202 13.3001C25.1449 12.9066 25.8892 13.0129 26.2827 13.5376Z" fill="#B8B8D4"/>
<path d="M24.5897 26.1732C24.126 26.6369 23.374 26.6369 22.9103 26.1732L22.166 25.4288C21.278 26.2669 19.8877 26.2667 18.9999 25.4282C18.1123 26.2667 16.722 26.2669 15.8341 25.4288L15.0897 26.1732C14.6259 26.6369 13.8741 26.6369 13.4103 26.1732C12.9466 25.7094 12.9466 24.9575 13.4103 24.4937L14.202 23.7021C15.0871 22.817 16.5125 22.8015 17.4166 23.6555C18.3047 22.8167 19.6953 22.8167 20.5833 23.6555C21.4875 22.8015 22.9128 22.817 23.7981 23.7021L24.5897 24.4937C25.0535 24.9575 25.0535 25.7094 24.5897 26.1732Z" fill="#B8B8D4"/>
</svg>
